<?xml version="1.0" encoding="utf-8"?>
<!-- Generator: Adobe Illustrator 26.0.2, SVG Export Plug-In . SVG Version: 6.00 Build 0)  -->
<svg version="1.1" id="Warstwa_1" xmlns="http://www.w3.org/2000/svg" xmlns:xlink="http://www.w3.org/1999/xlink" x="0px" y="0px"
	 viewBox="0 0 16.6 22.2" style="enable-background:new 0 0 16.6 22.2;" xml:space="preserve">
<style type="text/css">
	.st0{fill-rule:evenodd;clip-rule:evenodd;fill:#404041;}
	.st1{fill-rule:evenodd;clip-rule:evenodd;fill:#FFCD00;}
</style>
<path class="st0" d="M0.5,10.9C-1.3,5.5,2.2,0,8.3,0c6.1,0,9.6,5.4,7.9,10.9c-1.8,5.5-7.8,11.3-7.8,11.3S2.2,16.3,0.5,10.9z"/>
<path class="st1" d="M6.5,9.1c0,0-0.7,0.3-1.5,0.3c-0.8,0-1.5-0.3-1.5-0.3S4.1,8.8,5,8.8C5.8,8.8,6.5,9.1,6.5,9.1z"/>
<path class="st1" d="M8.6,5.2c0,0-0.6-0.4-1.1-1.1C7,3.5,6.9,2.8,6.9,2.8s0.6,0.4,1.1,1.1C8.4,4.5,8.6,5.2,8.6,5.2z"/>
<path class="st1" d="M7,6.9c0,0-0.7-0.1-1.5-0.5C4.8,6,4.4,5.5,4.4,5.5S5.1,5.6,5.8,6C6.6,6.4,7,6.9,7,6.9z"/>
<path class="st1" d="M8.5,10.3c0.4,0,0.9-0.3,0.9-0.3S8.2,9.6,8.3,8.6c0.2-1.8,1.7-3.2,3.5-3.4c-0.2,0-0.4,0-0.6,0c-2.2,0-4,1.8-4,4
	c0,2.2,1.8,3.9,4,3.9c0.2,0,0.4,0,0.5,0C10.2,12.8,8.9,11.7,8.5,10.3"/>
<path class="st1" d="M8.6,12.9c0,0-0.6,0.4-1.1,1.1c-0.5,0.7-0.6,1.4-0.6,1.4s0.6-0.4,1.1-1.1C8.4,13.6,8.6,12.9,8.6,12.9z"/>
<path class="st1" d="M7,11.3c0,0-0.7,0.1-1.5,0.5c-0.7,0.4-1.2,0.9-1.2,0.9s0.7-0.1,1.5-0.5C6.6,11.8,7,11.3,7,11.3z"/>
</svg>
