<svg xmlns="http://www.w3.org/2000/svg" viewBox="0 0 90.18 90.18"><defs><style>.cls-1{fill:#ffcb05;}.cls-2{fill:#fff;}.cls-3{fill:#414042;}.cls-4{fill:none;stroke:#fff;stroke-miterlimit:10;stroke-width:2.66px;}</style></defs><title>nieśmiały 2</title><g id="Warstwa_2" data-name="Warstwa 2"><g id="Warstwa_1-2" data-name="Warstwa 1"><rect class="cls-1" width="90.18" height="90.18"/><path class="cls-2" d="M38.65,38.65A17.18,17.18,0,1,1,21.47,21.47,17.18,17.18,0,0,1,38.65,38.65"/><path class="cls-3" d="M36.29,33.07a6.45,6.45,0,1,1-6.44-6.45,6.45,6.45,0,0,1,6.44,6.45"/><path class="cls-2" d="M85.89,38.65A17.18,17.18,0,1,1,68.71,21.47,17.18,17.18,0,0,1,85.89,38.65"/><path class="cls-3" d="M83.53,33.07a6.45,6.45,0,1,1-6.44-6.45,6.45,6.45,0,0,1,6.44,6.45"/><line class="cls-4" x1="40.98" y1="63.67" x2="52.22" y2="61.78"/></g></g></svg>